<?xml version="1.0" encoding="iso-8859-1"?>
<!DOCTYPE svg PUBLIC "-//W3C//DTD SVG 1.1 Basic//EN" "http://www.w3.org/Graphics/SVG/1.1/DTD/svg11-basic.dtd">
<svg version="1.1" baseProfile="basic"
   xmlns="http://www.w3.org/2000/svg" xmlns:xlink="http://www.w3.org/1999/xlink" x="0px" y="0px" width="128px" height="128px"
   viewBox="0 0 128 128" xml:space="preserve">
  <path transform="matrix(0.128,0,0,0.128,0,0)" stroke="none" style="fill:#000000" d="M 641 260 L 641 461 L 641 559 L 641 760 C 641 769 634 776 624 776 C 615 776 608 769 608 760 L 608 559 L 567 559 L 567 260 C 567 240 584 223 604 223 C 625 223 641 240 641 260 z M 432 223 C 391 223 358 271 358 331 C 358 382 382 425 415 436 L 415 760 C 415 769 422 776 432 776 C 441 776 448 769 448 760 L 448 436 C 481 425 505 382 505 331 C 505 271 472 223 432 223 z M 402 710 C 322 673 267 593 267 500 C 267 430 297 368 346 326 C 346 313 348 300 351 289 C 285 336 241 413 241 500 C 241 607 308 700 402 738 L 402 710 z M 505 267 C 522 268 539 270 555 274 L 555 260 C 555 256 555 252 556 248 C 538 244 519 241 500 241 C 496 241 493 242 490 242 C 495 249 501 258 505 267 z M 654 293 L 654 326 C 702 369 732 430 732 499 C 732 568 702 630 654 673 L 654 706 C 717 659 758 584 758 499 C 758 415 717 340 654 293 z M 595 711 C 566 725 534 732 500 732 C 486 732 474 731 461 729 L 461 754 C 474 756 486 758 500 758 C 533 758 565 751 595 739 L 595 711 z M 1000 500 C 1000 775 775 1000 500 1000 C 224 1000 0 775 0 500 C 0 224 224 0 500 0 C 775 0 1000 224 1000 500 z M 974 500 C 974 238 761 25 500 25 C 238 25 25 238 25 500 C 25 761 238 974 500 974 C 761 974 974 761 974 500 z"/>
</svg>