<?xml version="1.0" encoding="iso-8859-1"?>
<!DOCTYPE svg PUBLIC "-//W3C//DTD SVG 1.1 Basic//EN" "http://www.w3.org/Graphics/SVG/1.1/DTD/svg11-basic.dtd">
<svg version="1.1" baseProfile="basic"
   xmlns="http://www.w3.org/2000/svg" xmlns:xlink="http://www.w3.org/1999/xlink" x="0px" y="0px" width="128px" height="128px"
   viewBox="0 0 128 128" xml:space="preserve">
  <path transform="matrix(0.128,0,0,0.128,18,0)" stroke="none" style="fill:#000000" d="M 356 110 C 373 110 387 96 387 79 C 387 62 373 48 356 48 C 339 48 325 62 325 79 C 325 96 339 110 356 110 z M 356 64 C 364 64 370 71 370 79 C 370 87 364 93 356 93 C 348 93 341 87 341 79 C 341 71 348 64 356 64 z M 493 127 C 493 127 492 127 492 127 C 492 127 492 127 491 127 C 480 125 451 118 431 106 C 434 97 435 88 435 79 C 435 35 400 0 356 0 C 312 0 276 35 276 79 C 276 89 278 98 281 108 C 265 116 244 122 227 126 C 225 126 222 127 220 127 L 0 127 L 0 1000 L 712 1000 L 712 127 L 493 127 z M 229 142 C 240 140 279 131 303 114 C 296 104 292 92 292 79 C 292 44 321 16 356 16 C 391 16 419 44 419 79 C 419 91 416 102 410 112 C 437 133 488 143 489 143 C 509 147 525 164 525 186 C 525 210 505 230 481 230 L 231 230 C 206 230 187 210 187 186 C 187 162 205 143 229 142 z M 651 896 L 61 896 L 61 184 L 171 184 C 171 184 170 185 170 186 C 170 219 197 246 231 246 L 481 246 C 514 246 541 219 541 186 C 541 185 541 184 541 184 L 651 184 L 651 896 z M 353 360 L 595 360 C 598 360 601 363 601 367 C 601 370 598 373 595 373 L 353 373 C 349 373 346 370 346 367 C 346 363 349 360 353 360 z M 601 442 C 601 446 598 449 595 449 L 353 449 C 349 449 346 446 346 442 C 346 438 349 435 353 435 L 595 435 C 598 435 601 438 601 442 z M 601 529 C 601 532 598 535 595 535 L 353 535 C 349 535 346 532 346 529 C 346 525 349 522 353 522 L 595 522 C 598 522 601 525 601 529 z M 601 604 C 601 608 598 611 595 611 L 353 611 C 349 611 346 608 346 604 C 346 601 349 598 353 598 L 595 598 C 598 598 601 601 601 604 z M 601 691 C 601 695 598 698 595 698 L 353 698 C 349 698 346 695 346 691 C 346 687 349 684 353 684 L 595 684 C 598 684 601 687 601 691 z M 601 767 C 601 770 598 773 595 773 L 353 773 C 349 773 346 770 346 767 C 346 763 349 760 353 760 L 595 760 C 598 760 601 763 601 767 z M 211 196 L 346 196 L 365 196 L 501 196 C 501 196 494 218 459 218 C 431 218 380 218 360 218 C 360 218 357 218 352 218 C 332 218 281 218 253 218 C 217 218 211 196 211 196 z M 256 371 L 256 346 C 256 343 254 340 251 340 L 134 340 C 131 340 128 343 128 346 L 128 462 C 128 465 131 468 134 468 L 251 468 C 254 468 256 465 256 462 L 256 390 L 322 336 L 256 371 z M 246 457 L 139 457 L 139 351 L 246 351 L 246 377 L 205 399 L 187 368 L 165 380 L 198 438 L 246 398 L 246 457 z M 256 536 L 256 511 C 256 508 254 505 251 505 L 134 505 C 131 505 128 508 128 511 L 128 627 C 128 630 131 633 134 633 L 251 633 C 254 633 256 630 256 627 L 256 555 L 322 501 L 256 536 z M 246 622 L 139 622 L 139 516 L 246 516 L 246 542 L 205 564 L 187 533 L 165 545 L 198 603 L 246 564 L 246 622 z M 256 698 L 256 672 C 256 669 254 667 251 667 L 134 667 C 131 667 128 669 128 672 L 128 789 C 128 792 131 794 134 794 L 251 794 C 254 794 256 792 256 789 L 256 716 L 322 662 L 256 698 z M 246 784 L 139 784 L 139 677 L 246 677 L 246 704 L 205 726 L 187 694 L 165 707 L 198 765 L 246 725 L 246 784 z"/>
</svg>